<?xml version="1.0" encoding="UTF-8" standalone="no"?>
<!DOCTYPE svg PUBLIC "-//W3C//DTD SVG 1.1//EN" "http://www.w3.org/Graphics/SVG/1.1/DTD/svg11.dtd">
<svg width="100%" height="100%" viewBox="0 0 1229 1404" version="1.1" xmlns="http://www.w3.org/2000/svg" xmlns:xlink="http://www.w3.org/1999/xlink" xml:space="preserve" xmlns:serif="http://www.serif.com/" style="fill-rule:evenodd;clip-rule:evenodd;stroke-linecap:round;stroke-linejoin:round;stroke-miterlimit:1.5;">
    <g transform="matrix(1,0,0,1,-1139.532598,-538.161409)">
        <g transform="matrix(-0.00055,1.920101,-1.920101,-0.00055,3806.753579,-2391.630965)">
            <path d="M1625.469,775.793C1758.098,1115.586 1833.217,1285.874 1742.683,1347.414C1702.738,1374.566 1686.237,1364.927 1625.438,1296.545C1421.171,1066.805 1704.123,1086.575 1816.87,1057.714C2136.659,975.855 2001.248,813.601 1933.649,821.45C1878.542,827.849 1857.863,842.513 1893.234,991.866C1922.909,1117.163 2187.938,1195.936 2212.163,1147.006C2262.03,1046.282 2196.448,991.191 2163.162,948.519C2060.85,1164.64 1998.106,1266.413 1981.763,1292.921" style="fill:none;stroke:url(#_Linear1);stroke-width:54.25px;"/>
        </g>
    </g>
    <defs>
        <linearGradient id="_Linear1" x1="0" y1="0" x2="1" y2="0" gradientUnits="userSpaceOnUse" gradientTransform="matrix(676.931457,0,0,585.696575,1553.311986,1068.641439)"><stop offset="0" style="stop-color:rgb(92,0,255);stop-opacity:1"/><stop offset="1" style="stop-color:rgb(12,255,168);stop-opacity:1"/></linearGradient>
    </defs>
</svg>
